<svg width="24" height="24" viewBox="0 0 24 24" fill="none" xmlns="http://www.w3.org/2000/svg">
<mask id="mask0_93_1849" style="mask-type:luminance" maskUnits="userSpaceOnUse" x="3" y="3" width="18" height="18">
<path d="M21 3H3V21H21V3Z" fill="white"/>
</mask>
<g mask="url(#mask0_93_1849)">
<path d="M12 20.0625C7.5525 20.0625 3.9375 16.4475 3.9375 12C3.9375 7.5525 7.5525 3.9375 12 3.9375C16.4475 3.9375 20.0625 7.5525 20.0625 12C20.0625 16.4475 16.4475 20.0625 12 20.0625ZM12 5.0625C8.175 5.0625 5.0625 8.175 5.0625 12C5.0625 15.825 8.175 18.9375 12 18.9375C15.825 18.9375 18.9375 15.825 18.9375 12C18.9375 8.175 15.825 5.0625 12 5.0625Z" fill="#75777B"/>
<path d="M9.87752 14.6845C9.73502 14.6845 9.59252 14.632 9.48002 14.5195C9.26252 14.302 9.26252 13.942 9.48002 13.7245L13.725 9.47953C13.9425 9.26203 14.3025 9.26203 14.52 9.47953C14.7375 9.69702 14.7375 10.057 14.52 10.2745L10.275 14.5195C10.17 14.632 10.02 14.6845 9.87752 14.6845Z" fill="#75777B"/>
<path d="M14.1225 14.6845C13.98 14.6845 13.8375 14.632 13.725 14.5195L9.48002 10.2745C9.26252 10.057 9.26252 9.69702 9.48002 9.47953C9.69752 9.26203 10.0575 9.26203 10.275 9.47953L14.52 13.7245C14.7375 13.942 14.7375 14.302 14.52 14.5195C14.4075 14.632 14.265 14.6845 14.1225 14.6845Z" fill="#75777B"/>
</g>
</svg>
