<svg width="20" height="20" viewBox="0 0 20 20" fill="none" xmlns="http://www.w3.org/2000/svg">
<path fill-rule="evenodd" clip-rule="evenodd" d="M4.40103 14.4683C4.25094 14.6184 4.16663 14.8219 4.16663 15.0342C4.16663 15.2464 4.25094 15.45 4.40103 15.6001C4.55112 15.7502 4.75468 15.8345 4.96694 15.8345C5.17919 15.8345 5.38276 15.7502 5.53284 15.6001L10.0001 11.1312L14.4682 15.5993C14.619 15.745 14.8211 15.8256 15.0308 15.8238C15.2405 15.822 15.4411 15.7378 15.5894 15.5895C15.7377 15.4412 15.8218 15.2406 15.8237 15.0309C15.8255 14.8212 15.7449 14.6191 15.5992 14.4683L11.1311 10.0002L15.5992 5.53216C15.7492 5.38207 15.8334 5.17855 15.8333 4.96637C15.8332 4.75419 15.7489 4.55073 15.5988 4.40075C15.4487 4.25077 15.2452 4.16655 15.033 4.16663C14.8208 4.1667 14.6173 4.25106 14.4674 4.40115L10.0001 8.86921L5.53204 4.40115C5.38119 4.25545 5.17914 4.17482 4.96942 4.17665C4.75969 4.17847 4.55908 4.26259 4.41078 4.41089C4.26247 4.55919 4.17835 4.75981 4.17653 4.96953C4.17471 5.17926 4.25533 5.3813 4.40103 5.53216L8.86909 10.0002L4.40103 14.4683Z" fill="#212121"/>
</svg>
