<svg width="24" height="24" viewBox="0 0 24 24" fill="none" xmlns="http://www.w3.org/2000/svg">
<path d="M13.5436 3.19084C13.4494 2.50836 12.8661 2 12.1772 2H11.8228C11.1339 2 10.5506 2.50836 10.4564 3.19084L10.3363 4.06222C10.2596 4.61814 9.84869 5.06065 9.32717 5.26789C9.24965 5.2987 9.1727 5.33081 9.09651 5.36421C8.5823 5.58952 7.97846 5.57021 7.52932 5.23337L7.10509 4.91519C6.55596 4.50334 5.78755 4.55794 5.30218 5.04331L5.04332 5.30218C4.55796 5.78755 4.50334 6.55595 4.91519 7.10508L5.23337 7.52932C5.57022 7.97844 5.58952 8.58229 5.36421 9.09651C5.33081 9.1727 5.2987 9.24965 5.26789 9.32717C5.06065 9.84869 4.61814 10.2596 4.06222 10.3363L3.19084 10.4564C2.50836 10.5506 2 11.1338 2 11.8228V12.1772C2 12.8661 2.50836 13.4494 3.19084 13.5436L4.06222 13.6637C4.61814 13.7404 5.06065 14.1513 5.26789 14.6728C5.2987 14.7503 5.33081 14.8273 5.36421 14.9034C5.58952 15.4177 5.57021 16.0215 5.23337 16.4706L4.91519 16.8949C4.50334 17.444 4.55794 18.2124 5.04331 18.6978L5.30218 18.9567C5.78755 19.4421 6.55595 19.4967 7.10508 19.0848L7.52932 18.7666C7.97844 18.4298 8.58229 18.4105 9.0965 18.6359C9.1727 18.6692 9.24965 18.7012 9.32717 18.7321C9.84869 18.9393 10.2596 19.3819 10.3363 19.9378L10.4564 20.8091C10.5506 21.4916 11.1339 22 11.8228 22H12.1772C12.8661 22 13.4494 21.4916 13.5436 20.8091L13.6637 19.9378C13.7404 19.3819 14.1513 18.9393 14.6728 18.7321C14.7503 18.7012 14.8273 18.6692 14.9034 18.6357C15.4177 18.4105 16.0215 18.4298 16.4706 18.7666L16.8949 19.0848C17.444 19.4967 18.2124 19.4421 18.6978 18.9567L18.9567 18.6978C19.4421 18.2124 19.4967 17.444 19.0848 16.8949L18.7666 16.4706C18.4298 16.0215 18.4105 15.4177 18.6359 14.9034C18.6692 14.8273 18.7012 14.7503 18.7321 14.6728C18.9393 14.1513 19.3819 13.7404 19.9378 13.6637L20.8091 13.5436C21.4916 13.4494 22 12.8661 22 12.1772V11.8228C22 11.1339 21.4916 10.5506 20.8091 10.4564L19.9378 10.3363C19.3819 10.2596 18.9393 9.84869 18.7321 9.32717C18.7012 9.24965 18.6692 9.1727 18.6357 9.0965C18.4105 8.58229 18.4298 7.97844 18.7666 7.52931L19.0848 7.1051C19.4967 6.55597 19.4421 5.78757 18.9567 5.30221L18.6978 5.04334C18.2124 4.55797 17.444 4.50337 16.8949 4.91521L16.4706 5.23337C16.0215 5.57022 15.4177 5.58952 14.9034 5.36421C14.8273 5.33081 14.7503 5.2987 14.6728 5.26789C14.1513 5.06065 13.7404 4.61814 13.6637 4.06222L13.5436 3.19084Z" stroke="#75777B" stroke-width="1.6" stroke-linecap="round" stroke-linejoin="round"/>
<path d="M13.7242 12C13.7242 12.9523 12.9523 13.7242 12 13.7242C11.0477 13.7242 10.2759 12.9523 10.2759 12C10.2759 11.0477 11.0477 10.2759 12 10.2759C12.9523 10.2759 13.7242 11.0477 13.7242 12Z" stroke="#75777B" stroke-width="1.6" stroke-linecap="round" stroke-linejoin="round"/>
</svg>
